<svg xmlns="http://www.w3.org/2000/svg" xmlns:svg="http://www.w3.org/2000/svg" id="svg5" width="200mm" height="200mm" version="1.1" viewBox="0 0 200 200"><g id="layer3"><rect style="display:inline;fill:#2d4059;fill-opacity:1;stroke-width:.303124" id="rect83" width="200" height="200" x="0" y="0" rx="25" ry="25"/></g><g id="layer2"><ellipse style="fill:#ff9a00;fill-opacity:1;stroke:none;stroke-width:16.7706;stroke-dasharray:none;stroke-dashoffset:0;stroke-opacity:1" id="path3136" cx="100" cy="18.595" rx="15.183" ry="15.183"/><circle style="fill:#ff9a00;fill-opacity:1;stroke:none;stroke-width:16.7706;stroke-dasharray:none;stroke-dashoffset:0;stroke-opacity:1" id="circle3138" cx="29.619" cy="139.886" r="15.183"/><circle style="fill:#ff9a00;fill-opacity:1;stroke:none;stroke-width:16.7706;stroke-dasharray:none;stroke-dashoffset:0;stroke-opacity:1" id="circle3140" cx="170.745" cy="139.886" r="15.183"/><circle style="fill:none;fill-opacity:1;stroke:#ff9a00;stroke-width:10;stroke-dasharray:none;stroke-dashoffset:0;stroke-opacity:1" id="path3220" cx="100" cy="100" r="81.747"/></g><g id="layer1" style="display:inline"><path style="fill:#ea5455;fill-opacity:1;stroke:none;stroke-width:1.23275;stroke-dasharray:none;stroke-opacity:1" id="path1027" d="m 78.828125,42.46875 -28.53125,3.490234 c -4.816277,17.769234 -6.10869,53.52438 14.035156,86.017576 11.164623,19.33769 46.867189,67.34571 46.867189,67.34571 0,0 35.70256,-48.00802 46.86719,-67.34571 20.14384,-32.493196 18.85338,-68.248342 14.03711,-86.017576 L 143.57227,42.46875 c 0,0 7.07595,16.886308 6.07617,40.117188 -1.58085,23.629942 -25.75091,65.056102 -38.19141,83.705082 -0.0871,0.12894 -0.17334,0.25781 -0.25781,0.38671 -0.0845,-0.1289 -0.16874,-0.25777 -0.25586,-0.38671 C 98.502865,147.64204 74.33085,106.21588 72.75,82.585938 71.750218,59.355057 78.828125,42.46875 78.828125,42.46875 Z" class="UnoptimicedTransforms" transform="matrix(1.1751614,0,0,1.18129,-30.677876,-40.137801)"/></g></svg>